<?xml version="1.0" standalone="no"?>
<!DOCTYPE svg PUBLIC "-//W3C//DTD SVG 20010904//EN"
 "http://www.w3.org/TR/2001/REC-SVG-20010904/DTD/svg10.dtd">
<svg version="1.0" xmlns="http://www.w3.org/2000/svg"
 width="500.000000pt" height="500.000000pt" viewBox="0 0 500.000000 500.000000"
 preserveAspectRatio="xMidYMid meet">

<g transform="translate(0.000000,500.000000) scale(0.100000,-0.100000)"
fill="#000000" stroke="none">
<path d="M1053 4195 c-349 -63 -623 -314 -714 -655 -32 -119 -33 -292 -1 -404
82 -286 282 -683 609 -1206 172 -275 239 -370 261 -370 36 0 435 640 630 1011
97 185 156 320 210 479 37 111 46 152 50 230 8 168 -32 332 -119 487 -60 106
-215 261 -322 322 -188 106 -400 143 -604 106z m292 -330 c217 -55 381 -234
421 -455 25 -139 -3 -286 -75 -399 -101 -157 -306 -270 -492 -271 -64 0 -185
33 -260 71 -133 66 -258 230 -288 377 -63 305 122 604 419 677 75 18 203 18
275 0z"/>
<path d="M1179 3625 c-162 -32 -280 -130 -330 -273 -19 -53 -41 -286 -26 -272
3 3 13 39 21 79 52 251 217 384 501 404 80 6 75 1 -30 -22 -159 -37 -285 -136
-361 -286 -25 -51 -44 -98 -40 -104 10 -15 98 -40 171 -47 149 -15 231 45 349
257 39 68 90 146 115 172 30 32 41 51 34 58 -17 17 -194 49 -268 48 -38 -1
-100 -7 -136 -14z"/>
<path d="M2476 3853 c-4 -4 3 -15 16 -25 l23 -17 0 -360 0 -359 -24 -26 -24
-26 291 0 292 0 -1 78 c0 64 -2 74 -12 58 -31 -50 -79 -94 -115 -104 -47 -14
-271 -16 -292 -2 -12 8 -16 44 -18 206 l-3 196 128 -4 c137 -4 186 -19 198
-58 14 -44 25 -16 25 65 0 47 -2 85 -5 85 -3 0 -18 -14 -33 -31 -23 -25 -38
-32 -99 -40 -40 -5 -103 -9 -140 -7 l-68 3 -3 178 -2 177 113 0 c171 0 233
-25 280 -115 l16 -30 0 60 c1 33 -2 70 -5 83 l-6 22 -262 0 c-145 0 -266 -3
-270 -7z"/>
<path d="M3353 3612 c-252 -90 -288 -433 -59 -555 32 -17 59 -22 121 -22 70 0
87 4 133 29 53 30 149 122 138 133 -4 4 -21 -7 -39 -24 -54 -51 -95 -67 -172
-68 -54 0 -81 6 -118 24 -120 59 -171 234 -106 367 32 68 131 133 164 108 62
-48 143 -94 164 -94 38 0 73 27 69 53 -8 56 -192 86 -295 49z"/>
<path d="M3953 3612 c-133 -48 -203 -150 -203 -296 0 -161 110 -272 280 -283
131 -10 265 77 305 196 23 71 17 189 -13 247 -62 121 -234 184 -369 136z m135
-21 c83 -43 143 -132 168 -252 28 -134 -11 -233 -109 -274 -50 -21 -83 -19
-144 9 -147 69 -221 345 -125 466 55 68 137 88 210 51z"/>
<path d="M3913 2840 l-63 -29 25 -25 c24 -24 25 -29 25 -166 0 -110 -3 -140
-12 -136 -178 74 -344 23 -419 -129 -77 -157 -30 -334 110 -407 94 -49 180
-35 273 43 l48 40 0 -38 c0 -53 14 -63 84 -63 l59 0 -24 26 -24 26 -3 444 c-1
244 -6 444 -10 444 -4 0 -35 -13 -69 -30z m-124 -366 c38 -19 62 -40 82 -72
29 -45 29 -48 29 -197 0 -144 -1 -152 -22 -172 -64 -58 -165 -74 -230 -36 -77
45 -128 152 -128 271 0 85 17 138 57 179 58 57 132 67 212 27z"/>
<path d="M2477 2744 c-3 -4 4 -15 16 -24 22 -18 22 -19 22 -378 l0 -360 -24
-26 -24 -26 96 0 c88 0 120 9 83 23 -26 10 -36 78 -36 240 l0 157 65 0 c114 0
146 -30 215 -200 83 -207 114 -240 209 -225 l46 8 -32 9 c-39 10 -63 50 -124
202 -51 126 -91 177 -157 197 l-43 13 61 18 c80 25 133 76 149 145 32 132 -45
205 -232 224 -107 10 -281 12 -290 3z m331 -43 c72 -36 108 -107 99 -188 -10
-95 -82 -143 -214 -143 l-83 0 0 173 c0 96 3 177 8 181 13 15 148 -2 190 -23z"/>
<path d="M3206 2704 c-24 -23 -24 -69 -1 -93 31 -32 105 -2 105 43 0 56 -67
88 -104 50z"/>
<path d="M3225 2494 c-33 -15 -61 -27 -63 -29 -2 -2 9 -15 23 -29 l26 -26 -3
-214 c-3 -211 -3 -215 -27 -240 l-24 -26 97 0 98 0 -26 31 -26 31 0 264 c0
145 -3 264 -7 264 -5 -1 -35 -12 -68 -26z"/>
<path d="M4313 2501 c-92 -32 -168 -110 -193 -201 -13 -46 -13 -145 0 -192 16
-57 70 -120 130 -153 47 -26 65 -30 130 -30 92 0 149 25 221 97 60 60 65 83 7
33 -103 -87 -263 -82 -349 12 -45 48 -62 93 -67 176 l-5 77 227 0 c221 0 226
0 226 20 0 34 -25 83 -60 117 -63 61 -168 79 -267 44z m138 -21 c41 -22 99
-98 99 -132 0 -17 -13 -18 -180 -18 l-179 0 15 42 c38 109 148 157 245 108z"/>
<path d="M1200 1445 l0 -45 135 0 135 0 0 45 0 45 -135 0 -135 0 0 -45z"/>
<path d="M1750 1445 l0 -45 135 0 135 0 0 45 0 45 -135 0 -135 0 0 -45z"/>
<path d="M2300 1445 l0 -45 125 0 125 0 0 45 0 45 -125 0 -125 0 0 -45z"/>
</g>
</svg>
